<svg width="320" height="90" viewBox="0 0 320 90" fill="none" xmlns="http://www.w3.org/2000/svg">
  <rect x="0" y="0" width="90" height="90" rx="20" fill="#19344D"/>
  <g>
    <path d="M45 22c-10 0-18 8-18 18 0 5.7 2.7 10.7 7 14l-4.5 9.5c-.5 1 .2 2.2 1.3 2.2h10c.6 0 1.1-.4 1.3-1l2.2-5.2c.2-.5.7-.8 1.2-.8h.2c.5 0 1 .3 1.2.8l2.2 5.2c.2.6.7 1 1.3 1h10c1.1 0 1.8-1.2 1.3-2.2L66 54c4.3-3.3 7-8.3 7-14 0-10-8-18-18-18zm0 6a6 6 0 110 12 6 6 0 010-12z" fill="#fff"/>
  </g>
  <text x="100" y="60" font-family="Arial, Helvetica, sans-serif" font-size="48" font-weight="bold" fill="#19344D">Access</text>
</svg> 